<?xml version="1.0" encoding="UTF-8"?>
<svg width="82px" height="28px" viewBox="0 0 82 28" version="1.1" xmlns="http://www.w3.org/2000/svg" xmlns:xlink="http://www.w3.org/1999/xlink">
    <title>flink_28</title>
    <g id="flink_28" stroke="none" stroke-width="1" fill="none" fill-rule="evenodd">
        <g id="Flink_Logo_Black-Copy" transform="translate(5.000000, 5.000000)" fill="#000000" fill-rule="nonzero">
            <path d="M51.5475285,0 L56.5323194,0 L53.2015209,8.73764259 L53.2471483,8.73764259 L57.6159696,4.90494297 L63.581749,4.90494297 L56.7946768,10.1634981 L58.7452471,17.9657795 L53.3269962,17.9657795 L52.4030418,13.2319392 L51.0912548,14.2357414 L49.6539924,17.9657795 L44.6692015,17.9657795 L51.5475285,0 Z M34.1977186,4.90494297 L39.0114068,4.90494297 L38.338403,6.57034221 L38.3840304,6.57034221 C39.5475285,5.38403042 41.2015209,4.58555133 42.7870722,4.58555133 C45.0798479,4.58555133 46.8707224,5.54372624 46.4144487,8.11026616 C46.3117871,8.69201521 45.9923954,9.65019011 45.6273764,10.608365 L42.7414449,17.9885932 L37.756654,17.9885932 L40.095057,12 C40.3802281,11.2471483 40.7908745,10.3688213 40.8821293,9.83269962 C41.0304183,9 40.5057034,8.57794677 39.6958175,8.57794677 C38.1102662,8.57794677 37.3802281,9.70722433 36.8441065,11.0760456 L34.1634981,18 L29.1787072,18 L34.1977186,4.90494297 Z M27.2965779,4.90494297 L32.2813688,4.90494297 L27.2623574,17.9657795 L22.2775665,17.9657795 L27.2965779,4.90494297 Z M22.2547529,0 L27.2395437,0 L20.338403,17.9771863 L15.3536122,17.9771863 L22.2547529,0 Z M6.92395437,0 L20.7946768,0 L19.026616,4.60836502 L10.6882129,4.60836502 L9.59315589,7.51711027 L16.6653992,7.51711027 L15.0342205,11.7946768 L7.96197719,11.7946768 L5.54372624,17.9771863 L0,17.9771863 L6.92395437,0 Z M71.6577947,0 L66.6730038,0 L65.3269962,3.50190114 L70.3117871,3.50190114 L71.6577947,0 Z" id="Shape"></path>
        </g>
    </g>
</svg>