<svg xmlns="http://www.w3.org/2000/svg" xmlns:xlink="http://www.w3.org/1999/xlink" width="72" height="12" viewBox="0 0 72 12">
    <defs>
        <path id="cqiv2hweza" d="M0.381 0.325L9.662 0.325 9.662 11.684 0.381 11.684z"/>
    </defs>
    <g fill="none" fill-rule="evenodd">
        <path fill="#FFF" d="M0 1L0 12 2.191 12 2.191 7.347 7.825 7.347 7.825 12 10 12 10 1.002 7.825 1.002 7.825 5.098 2.191 5.098 2.191 1z"/>
        <g>
            <path fill="#FFF" d="M8.443.326v5.928c0 1.723-.177 3.55-3.002 3.55-2.824 0-3.025-1.788-3.025-3.55V.326H.203v6.07C.203 9.104.96 12 5.44 12c4.482 0 5.235-2.937 5.235-5.605V.325H8.443zM26.943.325L26.943 11.682 34.609 11.682 34.609 9.383 29.166 9.383 29.166.325zM41.387 9.751c-2.162 0-3.857-1.66-3.857-3.781 0-2.121 1.695-3.782 3.857-3.782s3.856 1.661 3.856 3.782c0 2.12-1.694 3.781-3.856 3.781m0-9.75C37.975 0 35.3 2.622 35.3 5.97c0 3.347 2.676 5.968 6.088 5.968 3.414 0 6.089-2.621 6.089-5.968C47.476 2.623 44.8 0 41.387 0" transform="translate(13)"/>
            <g transform="translate(13) translate(48)">
                <mask id="r9pqzdk4kb" fill="#fff">
                    <use xlink:href="#cqiv2hweza"/>
                </mask>
                <path fill="#FFF" d="M0.381 0.325L0.381 2.635 3.952 2.635 3.952 11.684 6.179 11.684 6.179 2.635 9.662 2.635 9.662 0.325z" mask="url(#r9pqzdk4kb)"/>
            </g>
            <path fill="#FFF" d="M19.711 9.611H15.85l-.001-2.854h3.876c1.147 0 1.645.448 1.645 1.468 0 .763-.313 1.386-1.659 1.386zm-.343-7.205c1.238 0 1.62.45 1.62 1.197 0 .748-.331 1.281-1.573 1.281l-3.566.001V2.406h3.519zm2.942 3.321c.687-.536 1.08-1.318 1.08-2.265 0-.943-.382-3.137-3.913-3.137H13.64v11.359h6.209c2.5 0 3.935-1.262 3.935-3.456 0-1.07-.512-1.925-1.473-2.5z" transform="translate(13)"/>
        </g>
    </g>
</svg>
