<?xml version="1.0" encoding="UTF-8"?>
<svg width="54px" height="24px" viewBox="0 0 54 24" version="1.1" xmlns="http://www.w3.org/2000/svg" xmlns:xlink="http://www.w3.org/1999/xlink">
    <title>Sandals</title>
    <defs>
        <polygon id="path-1" points="51.95 0 0 0 0 20.125908 51.95 20.125908"></polygon>
        <polygon id="path-3" points="51.95 0 0 0 0 20.125908 51.95 20.125908"></polygon>
        <polygon id="path-5" points="51.95 0 0 0 0 20.125908 51.95 20.125908"></polygon>
        <polygon id="path-7" points="51.95 0 0 0 0 20.125908 51.95 20.125908"></polygon>
        <polygon id="path-9" points="51.95 0 0 0 0 20.125908 51.95 20.125908"></polygon>
        <polygon id="path-11" points="51.95 0 0 0 0 20.125908 51.95 20.125908"></polygon>
        <polygon id="path-13" points="51.95 0 0 0 0 20.125908 51.95 20.125908"></polygon>
        <polygon id="path-15" points="51.95 0 0 0 0 20.125908 51.95 20.125908"></polygon>
        <polygon id="path-17" points="51.95 0 0 0 0 20.125908 51.95 20.125908"></polygon>
        <polygon id="path-19" points="51.95 0 0 0 0 20.125908 51.95 20.125908"></polygon>
        <polygon id="path-21" points="51.95 0 0 0 0 20.125908 51.95 20.125908"></polygon>
    </defs>
    <g id="Sandals" stroke="none" stroke-width="1" fill="none" fill-rule="evenodd">
        <g id="Sandals1" transform="translate(1.000000, 2.000000)">
            <mask id="mask-2" fill="white">
                <use xlink:href="#path-1"></use>
            </mask>
            <g id="Path"></g>
            <g id="Group" mask="url(#mask-2)">
                <g id="Clipped">
                    <mask id="mask-4" fill="white">
                        <use xlink:href="#path-3"></use>
                    </mask>
                    <g id="Path"></g>
                    <path d="M7.42136568,11.9497579 C7.92451338,11.3837167 7.98740684,11.0692494 7.73583299,10.3774213 C7.0440049,8.17615012 5.78612308,6.35223971 4.96850806,4.1509811 C4.84272114,3.89940725 5.03140153,3.39625955 5.47165576,3.33336609 C5.72322961,3.27047263 6.10059039,3.71072686 6.41507028,3.52204648 C7.29557875,3.01889878 8.86791531,1.6352426 9.37106301,0.943414516 C9.37106301,0.880521053 9.49684994,0.628947203 9.49684994,0.628947203 C9.43395648,0.377372725 9.0565957,0.188692337 8.80502185,0.0629054122 C8.42766108,-0.125774975 6.28927077,0.2515858 4.65404075,1.57234914 C3.64774535,2.32707069 2.32698264,3.58493994 2.64144995,5.09438304 C3.14459765,7.35853511 5.47165576,11.2579298 5.47165576,11.2579298 C5.66033615,11.698184 5.4087623,11.7610775 5.15718845,11.8239709 C5.03140153,11.8239709 4.9056146,11.4466102 4.71693421,11.4466102 C4.21378651,11.3208232 1.50936763,12.641586 0.125712711,13.7736683 C-0.314541527,14.0881356 0.81753954,15.5346852 1.32068724,15.4088983 C3.64774535,14.9686441 6.5408572,12.8302663 7.42136568,11.9497579 Z" id="Path" fill="#181314" fill-rule="nonzero" mask="url(#mask-4)"></path>
                </g>
                <g id="Clipped">
                    <mask id="mask-6" fill="white">
                        <use xlink:href="#path-5"></use>
                    </mask>
                    <g id="Path"></g>
                    <path d="M51.2581719,10.5661017 C51.1952785,10.5661017 50.0631961,12.0126513 49.371368,12.3900121 C49.4342615,12.2642252 49.497155,12.2013317 49.6229419,11.8868644 C50.1260896,10.9434625 50.2518765,10.0000605 49.8745157,9.11955206 C49.6858354,8.67929782 48.9940073,7.79878935 48.4279661,7.48432203 C48.1763923,7.86168281 47.1072034,9.11955206 47.1700969,9.0566586 C47.1700969,9.0566586 47.3587772,9.37112591 47.2958838,9.43401937 C46.8556295,10.1887409 46.100908,11.0692494 45.283293,11.8239709 C44.7172518,12.3271186 43.3335956,13.333414 42.8304479,12.3900121 C42.6417676,12.0755448 42.4530872,11.1950363 42.704661,10.8176755 C43.0191283,10.3774213 43.2078087,10.062954 43.648063,9.49691283 C44.9059322,7.67300242 46.5411622,4.96858982 46.100908,2.8302121 C45.9751211,2.13838401 44.9059322,2.07549055 44.4027845,2.45285133 C42.704661,3.64782711 41.069431,6.79249395 40.9436441,9.49691283 C40.8807506,10.062954 40.8807506,10.3145278 40.8807506,10.7547821 C40.251816,11.4466102 39.0568402,12.3900121 38.616586,12.3900121 C38.2392252,12.3900121 38.1134383,11.9497579 38.0505448,11.6352906 C38.1134383,11.3208232 38.3021186,10.6918886 38.3021186,10.6918886 C37.8618644,10.6918886 37.1700363,10.6918886 36.6668886,10.6918886 C36.1637409,11.8239709 35.7863801,11.1950363 34.402724,12.2642252 C35.6605932,10.7547821 36.3524213,10.1887409 37.9247579,9.37112591 C38.3021186,9.18244552 38.616586,9.11955206 38.5536925,9.0566586 C38.2392252,8.5535109 37.7360775,7.61010896 37.2329298,7.79878935 C36.4782082,7.98746973 35.5976998,8.49061743 34.7800847,9.18244552 C33.7737893,10.0000605 33.1448547,10.9434625 32.4530266,11.6352906 C32.0127724,12.0755448 31.2580508,12.5786925 30.6920097,12.2013317 C30.1259685,11.8868644 30.0630751,11.0692494 30.188862,10.1887409 C30.2517554,9.87427361 30.5662228,9.30823245 30.8806901,8.67929782 C31.8869855,6.85538741 32.641707,4.8428029 32.8303874,2.76731864 C32.8303874,2.45285133 32.1385593,2.07549055 31.824092,2.3270644 C30.5662228,3.27046634 29.1825666,5.91199176 28.8052058,7.73589588 C28.1762712,7.98746973 27.3586562,8.49061743 26.8555085,8.86797821 C25.7863196,9.68559322 24.8429177,10.6289952 24.33977,11.4466102 C24.0253027,11.9497579 23.8366223,12.2013317 23.5850484,11.698184 C22.8303269,10.1887409 22.8303269,8.30193705 22.578753,8.17615012 C22.578753,8.17615012 22.3271792,8.0503632 22.1384988,8.11325666 C21.8240315,8.17615012 21.0693099,9.87427361 19.1196126,11.6352906 C19.308293,11.0063559 19.6227603,9.62269976 19.7485472,8.61640436 L19.7485472,8.5535109 C19.4969734,8.36483051 18.4277845,7.73589588 18.2391041,7.92457627 C18.1133172,8.0503632 17.9246368,8.5535109 17.673063,8.99376513 C17.1699153,10.0000605 16.5409806,10.8176755 16.1636199,11.3208232 C15.4717918,12.0126513 14.9686441,12.3900121 14.5283898,12.3900121 C14.1510291,12.3900121 14.0252421,11.9497579 13.9623487,11.6352906 C14.0252421,11.3208232 14.2139225,10.6918886 14.1510291,10.6918886 C13.7107748,10.6918886 13.0189467,10.6918886 12.515799,10.6918886 C12.0126513,11.8239709 11.6352906,11.1950363 10.2516344,12.2642252 C11.5095036,10.7547821 12.2013317,10.1887409 13.7736683,9.37112591 C14.1510291,9.18244552 14.4654964,9.11955206 14.4026029,9.0566586 C14.0881356,8.5535109 13.5849879,7.61010896 13.0818402,7.79878935 C12.3271186,7.98746973 11.4466102,8.49061743 10.6289952,9.18244552 C9.49691283,10.1887409 8.80508475,11.2579298 7.98746973,12.0126513 C7.48432203,12.4529056 6.28933996,13.6478814 6.35223971,13.6478814 C6.98117433,14.3397094 6.41513317,14.1510291 7.86168281,13.2705206 C7.86168281,13.2705206 7.73589588,14.1510291 7.79878935,14.2139225 C8.11325666,14.3397094 8.86797821,14.9686441 8.93087167,14.9057506 C8.93087167,14.9057506 10.7547821,12.8302663 12.0126513,12.5786925 C13.0189467,12.3900121 12.0755448,14.276816 13.5849879,14.5912833 C14.5912833,14.7799637 16.2894068,12.5786925 16.6038741,12.2642252 C16.729661,12.0755448 16.9183414,11.8868644 17.0441283,11.698184 C16.9812349,12.0755448 16.6667676,13.5849879 16.5409806,13.9623487 C16.4151937,14.276816 17.6101695,14.9686441 17.8617433,14.8428571 C18.9938257,14.2139225 20.7548426,12.0755448 21.5095642,10.880569 C21.6353511,11.3837167 21.8240315,11.8239709 22.0127119,12.2642252 C22.5158596,13.5220944 23.0190073,13.459201 23.7737288,13.2705206 C23.8366223,14.276816 25.2202785,14.9686441 25.4718523,14.8428571 C26.0378935,14.5912833 27.6731235,13.459201 28.427845,12.515799 C28.6794189,13.1447337 28.9309927,13.6478814 29.4970339,14.0252421 C29.9372881,14.276816 30.4404358,14.3397094 31.8869855,13.2076271 C31.8869855,13.2076271 31.824092,14.0881356 31.824092,14.1510291 C32.1385593,14.276816 33.0190678,14.8428571 33.0190678,14.8428571 C33.0190678,14.8428571 34.8429782,12.8302663 36.1008475,12.5786925 C37.1071429,12.3900121 36.1637409,14.2139225 37.673184,14.5283898 C38.5536925,14.7170702 40.251816,12.9560533 40.7549637,12.3900121 C41.0065375,12.2013317 40.8178571,12.9560533 41.3210048,13.6478814 C41.6354722,14.1510291 42.4530872,14.9057506 43.8996368,14.4026029 C44.2141041,14.276816 44.9688257,14.0252421 46.2895884,12.5786925 C46.918523,11.9497579 47.5474576,11.0692494 47.9248184,10.5032082 C47.9248184,10.5032082 48.1134988,10.3145278 48.1134988,10.6289952 C48.1763923,11.0063559 48.1763923,11.2579298 47.8619249,11.8868644 C47.6103511,12.515799 46.7927361,13.459201 46.3524818,13.8365617 C46.1638015,13.9623487 46.7927361,14.7170702 46.8556295,14.7170702 C48.8682203,14.4654964 50.5034504,12.8302663 51.6984262,11.0063559 C52.0128935,11.0063559 51.5097458,10.6289952 51.2581719,10.5661017 Z M44.7172518,4.3396552 C44.7801453,5.59752445 43.7109564,7.67300242 42.8933414,8.67929782 C42.7675545,7.42142857 43.7738499,5.22016367 44.7172518,4.3396552 Z M28.3020581,11.1321429 C27.9875908,11.4466102 27.1070823,12.2013317 26.3523608,12.7044794 C26.1636804,12.8302663 26.0378935,12.515799 26.0378935,12.4529056 C26.2265738,11.0692494 27.2328692,10.2516344 28.427845,9.43401937 C28.2391646,10.5032082 28.3649516,10.880569 28.3020581,11.1321429 Z" id="Shape" fill="#181314" fill-rule="nonzero" mask="url(#mask-6)"></path>
                </g>
                <g id="Clipped">
                    <mask id="mask-8" fill="white">
                        <use xlink:href="#path-7"></use>
                    </mask>
                    <g id="Path"></g>
                    <path d="M51.8241502,14.5283898 C51.6983633,14.6541768 51.5725763,14.7170702 51.4467894,14.7170702 C51.3210025,14.7170702 51.1323221,14.6541768 51.0694286,14.5283898 C50.9436417,14.4026029 50.8807482,14.276816 50.8807482,14.1510291 C50.8807482,13.9623487 50.9436417,13.8365617 51.0694286,13.7736683 C51.1952156,13.6478814 51.3210025,13.5849879 51.4467894,13.5849879 C51.5725763,13.5849879 51.7612567,13.6478814 51.8241502,13.7736683 C51.8870436,13.8994552 52.0128306,14.0252421 52.0128306,14.1510291 C52.0128306,14.276816 51.8870436,14.4026029 51.8241502,14.5283898 Z M51.0694286,13.7736683 C50.9436417,13.8994552 50.9436417,13.9623487 50.9436417,14.0881356 C50.9436417,14.2139225 51.0065352,14.3397094 51.0694286,14.4654964 C51.1952156,14.5912833 51.258109,14.5912833 51.3838959,14.5912833 C51.5096829,14.5912833 51.6354698,14.5283898 51.6983633,14.4654964 C51.8241502,14.3397094 51.8241502,14.276816 51.8241502,14.0881356 C51.8241502,13.8994552 51.7612567,13.8365617 51.6983633,13.7736683 C51.5725763,13.6478814 51.5096829,13.6478814 51.3838959,13.6478814 C51.258109,13.6478814 51.1323221,13.7107748 51.0694286,13.7736683 Z M51.3838959,13.8365617 C51.4467894,13.8365617 51.5096829,13.8365617 51.5725763,13.8365617 C51.6354698,13.8365617 51.6983633,13.8994552 51.6983633,14.0252421 C51.6983633,14.0881356 51.6983633,14.1510291 51.6354698,14.1510291 L51.5725763,14.1510291 C51.6354698,14.1510291 51.6354698,14.1510291 51.6983633,14.2139225 C51.6983633,14.276816 51.7612567,14.276816 51.7612567,14.3397094 L51.7612567,14.4026029 C51.7612567,14.4026029 51.7612567,14.4026029 51.7612567,14.4654964 C51.7612567,14.4654964 51.7612567,14.4654964 51.7612567,14.5283898 L51.5725763,14.5283898 L51.5725763,14.4654964 C51.5725763,14.4026029 51.5725763,14.3397094 51.5096829,14.3397094 C51.5096829,14.3397094 51.4467894,14.3397094 51.3838959,14.3397094 L51.3210025,14.3397094 L51.3210025,14.4654964 L51.1952156,14.4654964 L51.1952156,13.8365617 L51.3838959,13.8365617 Z M51.5096829,13.8994552 C51.5096829,13.8994552 51.4467894,13.8994552 51.3838959,13.8994552 L51.3210025,13.8994552 L51.3210025,14.1510291 L51.4467894,14.1510291 C51.5096829,14.1510291 51.5096829,14.1510291 51.5725763,14.1510291 C51.6354698,14.1510291 51.6354698,14.0881356 51.6354698,14.0252421 C51.5725763,13.9623487 51.5096829,13.9623487 51.5096829,13.8994552 Z" id="Shape" fill="#181314" fill-rule="nonzero" mask="url(#mask-8)"></path>
                </g>
                <g id="Clipped">
                    <mask id="mask-10" fill="white">
                        <use xlink:href="#path-9"></use>
                    </mask>
                    <g id="Path"></g>
                    <path d="M14.4654964,17.3585956 L15.6604722,17.3585956 C15.9749395,17.3585956 16.2894068,17.4843826 16.4151937,17.6101695 C16.5409806,17.7359564 16.6667676,17.9875303 16.6667676,18.1762107 C16.6667676,18.6164649 16.4151937,18.8680387 16.0378329,18.9938257 L16.7925545,20.0001211 L16.2265133,20.0001211 L15.5346852,19.0567191 L14.9057506,19.0567191 L14.9057506,20.0001211 L14.4654964,20.0001211 L14.4654964,17.3585956 Z M15.6604722,18.6793584 C15.9749395,18.6793584 16.2265133,18.490678 16.2265133,18.2391041 C16.2265133,17.9246368 16.0378329,17.7988499 15.6604722,17.7988499 L14.9686441,17.7988499 L14.9686441,18.7422518 L15.6604722,18.7422518 L15.6604722,18.6793584 Z" id="Shape" fill="#181314" fill-rule="nonzero" mask="url(#mask-10)"></path>
                </g>
                <g id="Clipped">
                    <mask id="mask-12" fill="white">
                        <use xlink:href="#path-11"></use>
                    </mask>
                    <g id="Path"></g>
                    <polygon id="Path" fill="#181314" fill-rule="nonzero" mask="url(#mask-12)" points="18.0505495 17.3585956 20.0631403 17.3585956 20.0631403 17.7988499 18.5536972 17.7988499 18.5536972 18.490678 19.8744599 18.490678 19.8744599 18.9309322 18.5536972 18.9309322 18.5536972 19.6227603 20.0631403 19.6227603 20.0631403 20.0630145 18.0505495 20.0630145"></polygon>
                </g>
                <g id="Clipped">
                    <mask id="mask-14" fill="white">
                        <use xlink:href="#path-13"></use>
                    </mask>
                    <g id="Path"></g>
                    <path d="M21.2578645,19.6856538 L21.5723318,19.3711864 C21.8239057,19.6227603 22.0754795,19.7485472 22.4528403,19.7485472 C22.7673076,19.7485472 22.955988,19.6227603 22.955988,19.4340799 C22.955988,19.2453995 22.8302011,19.1196126 22.3270534,18.9938257 C21.7610122,18.8680387 21.4465449,18.6793584 21.4465449,18.1762107 C21.4465449,17.7359564 21.8239057,17.3585956 22.3899469,17.3585956 C22.7673076,17.3585956 23.0817749,17.4843826 23.3962423,17.673063 L23.1446684,18.0504237 C22.8930946,17.8617433 22.6415207,17.7988499 22.3899469,17.7988499 C22.138373,17.7988499 21.9496926,17.9246368 21.9496926,18.1133172 C21.9496926,18.3019976 22.0754795,18.4277845 22.5786272,18.5535714 C23.1446684,18.6793584 23.4591357,18.8680387 23.4591357,19.3711864 C23.4591357,19.8743341 23.0817749,20.1888015 22.5157338,20.1888015 C21.9496926,20.125908 21.5723318,20.0001211 21.2578645,19.6856538 Z" id="Path" fill="#181314" fill-rule="nonzero" mask="url(#mask-14)"></path>
                </g>
                <g id="Clipped">
                    <mask id="mask-16" fill="white">
                        <use xlink:href="#path-15"></use>
                    </mask>
                    <g id="Path"></g>
                    <path d="M24.5914067,18.7422518 C24.5914067,17.9875303 25.1574479,17.3585956 26.0379564,17.3585956 C26.9184648,17.3585956 27.484506,17.9875303 27.484506,18.7422518 C27.484506,19.4969734 26.9184648,20.125908 26.0379564,20.125908 C25.1574479,20.125908 24.5914067,19.4969734 24.5914067,18.7422518 Z M26.9184648,18.7422518 C26.9184648,18.1762107 26.5411041,17.7359564 25.9750629,17.7359564 C25.4090217,17.7359564 25.031661,18.1762107 25.031661,18.6793584 C25.031661,19.1825061 25.4090217,19.6227603 25.9750629,19.6227603 C26.5411041,19.6856538 26.9184648,19.2453995 26.9184648,18.7422518 Z" id="Shape" fill="#181314" fill-rule="nonzero" mask="url(#mask-16)"></path>
                </g>
                <g id="Clipped">
                    <mask id="mask-18" fill="white">
                        <use xlink:href="#path-17"></use>
                    </mask>
                    <g id="Path"></g>
                    <path d="M28.7423752,17.3585956 L29.937351,17.3585956 C30.2518183,17.3585956 30.5662857,17.4843826 30.6920726,17.6101695 C30.8178595,17.7359564 30.9436464,17.9875303 30.9436464,18.1762107 C30.9436464,18.6164649 30.6920726,18.8680387 30.3147118,18.9938257 L31.0694334,20.0001211 L30.5033922,20.0001211 L29.8115641,19.0567191 L29.1826295,19.0567191 L29.1826295,20.0001211 L28.6794818,20.0001211 L28.7423752,17.3585956 Z M29.937351,18.6793584 C30.2518183,18.6793584 30.5033922,18.490678 30.5033922,18.2391041 C30.5033922,17.9246368 30.3147118,17.7988499 29.937351,17.7988499 L29.2455229,17.7988499 L29.2455229,18.7422518 L29.937351,18.7422518 L29.937351,18.6793584 Z" id="Shape" fill="#181314" fill-rule="nonzero" mask="url(#mask-18)"></path>
                </g>
                <g id="Clipped">
                    <mask id="mask-20" fill="white">
                        <use xlink:href="#path-19"></use>
                    </mask>
                    <g id="Path"></g>
                    <polygon id="Path" fill="#181314" fill-rule="nonzero" mask="url(#mask-20)" points="33.0191307 17.7988499 32.1386222 17.7988499 32.1386222 17.3585956 34.3398934 17.3585956 34.3398934 17.7988499 33.4593849 17.7988499 33.4593849 20.0630145 33.0191307 20.0630145"></polygon>
                </g>
                <g id="Clipped">
                    <mask id="mask-22" fill="white">
                        <use xlink:href="#path-21"></use>
                    </mask>
                    <g id="Path"></g>
                    <path d="M35.4088936,19.6856538 L35.7233609,19.3711864 C35.9749347,19.6227603 36.2265086,19.7485472 36.6038694,19.7485472 C36.9183367,19.7485472 37.1070171,19.6227603 37.1070171,19.4340799 C37.1070171,19.2453995 36.9812301,19.1196126 36.4780824,18.9938257 C35.9120413,18.8680387 35.597574,18.6793584 35.597574,18.1762107 C35.597574,17.7359564 35.9749347,17.3585956 36.5409759,17.3585956 C36.9183367,17.3585956 37.232804,17.4843826 37.5472713,17.673063 L37.2956975,18.0504237 C37.0441236,17.8617433 36.7925498,17.7988499 36.5409759,17.7988499 C36.2894021,17.7988499 36.1007217,17.9246368 36.1007217,18.1133172 C36.1007217,18.3019976 36.2265086,18.4277845 36.7296563,18.5535714 C37.2956975,18.6793584 37.6101648,18.8680387 37.6101648,19.3711864 C37.6101648,19.8743341 37.232804,20.1888015 36.6667628,20.1888015 C36.1007217,20.125908 35.7233609,20.0001211 35.4088936,19.6856538 Z" id="Path" fill="#181314" fill-rule="nonzero" mask="url(#mask-22)"></path>
                </g>
            </g>
        </g>
    </g>
</svg>