<?xml version="1.0" encoding="UTF-8"?>
<svg width="54px" height="24px" viewBox="0 0 54 24" version="1.1" xmlns="http://www.w3.org/2000/svg" xmlns:xlink="http://www.w3.org/1999/xlink">
    <title>Unibet</title>
    <g id="Unibet" stroke="none" stroke-width="1" fill="none" fill-rule="evenodd">
        <g id="Unibet-Logo-black1" transform="translate(1.000000, 3.000000)" fill="#000000" fill-rule="nonzero">
            <path d="M34.213228,13.1090819 C32.7117473,13.1090819 31.4990128,14.2640671 31.4990128,15.7655479 C31.4990128,17.2670286 32.653998,18.4797631 34.1554788,18.4797631 C35.6569595,18.4797631 36.869694,17.3247779 36.869694,15.8232971 C36.869694,15.8232971 36.869694,15.8232971 36.869694,15.8232971 C36.869694,14.3218164 35.6569595,13.1090819 34.213228,13.1090819 C34.213228,13.1090819 34.213228,13.1090819 34.213228,13.1090819 Z" id="Path" opacity="0.95"></path>
            <path d="M39.6994077,13.1090819 C38.1979269,13.1090819 36.9851925,14.2640671 36.9851925,15.7655479 C36.9851925,17.2670286 38.1401777,18.4797631 39.6416584,18.4797631 C41.1431392,18.4797631 42.3558736,17.3247779 42.3558736,15.8232971 C42.3558736,15.8232971 42.3558736,15.8232971 42.3558736,15.8232971 C42.3558736,14.3218164 41.1431392,13.1090819 39.6994077,13.1090819 C39.6994077,13.1090819 39.6994077,13.1090819 39.6994077,13.1090819 Z" id="Path"></path>
            <path d="M12.2107601,13.1090819 C10.7092793,13.1090819 9.4965449,14.2640671 9.4965449,15.7655479 C9.4965449,17.2670286 10.6515301,18.4797631 12.1530108,18.4797631 C13.6544916,18.4797631 14.867226,17.3247779 14.867226,15.8232971 C14.867226,15.8232971 14.867226,15.8232971 14.867226,15.8232971 C14.867226,14.3218164 13.6544916,13.1090819 12.2107601,13.1090819 Z" id="Path" opacity="0.55"></path>
            <path d="M17.6969398,13.1090819 C16.195459,13.1090819 14.9827246,14.2640671 14.9827246,15.7655479 C14.9827246,17.2670286 16.1377098,18.4797631 17.6391905,18.4797631 C19.1406713,18.4797631 20.3534057,17.3247779 20.3534057,15.8232971 C20.3534057,15.8232971 20.3534057,15.8232971 20.3534057,15.8232971 C20.3534057,14.3218164 19.1984205,13.1090819 17.6969398,13.1090819 C17.6969398,13.1090819 17.6969398,13.1090819 17.6969398,13.1090819 Z" id="Path" opacity="0.65"></path>
            <path d="M28.6692991,13.1090819 C27.1678183,13.1090819 25.9550839,14.2640671 25.9550839,15.7655479 C25.9550839,17.2670286 27.1100691,18.4797631 28.6115498,18.4797631 C30.1130306,18.4797631 31.325765,17.3247779 31.325765,15.8232971 C31.325765,15.8232971 31.325765,15.8232971 31.325765,15.8232971 C31.3835143,14.3218164 30.1707799,13.1090819 28.6692991,13.1090819 Z" id="Path" opacity="0.85"></path>
            <path d="M23.1831194,13.1090819 C21.6816387,13.1090819 20.4689042,14.2640671 20.4689042,15.7655479 C20.4689042,17.2670286 21.6238894,18.4797631 23.1253702,18.4797631 C24.6268509,18.4797631 25.8395854,17.3247779 25.8395854,15.8232971 C25.8395854,15.8232971 25.8395854,15.8232971 25.8395854,15.8232971 C25.8395854,14.3218164 24.6846002,13.1090819 23.1831194,13.1090819 Z" id="Path" opacity="0.75"></path>
            <path d="M42.2981244,7.96939783 L37.6781836,7.96939783 L37.6781836,6.17917078 L40.1614018,6.17917078 L40.1614018,6.17917078 C40.219151,6.17917078 40.2769003,6.17917078 40.3346496,6.12142152 C40.3923988,6.06367226 40.3923988,6.005923 40.3923988,5.94817374 L40.3923988,4.04244818 C40.3923988,3.92694966 40.2769003,3.81145114 40.1614018,3.81145114 L37.6781836,3.81145114 L37.6781836,2.36771965 L42.0093781,2.36771965 L42.0093781,2.36771965 C42.1248766,2.36771965 42.2403751,2.25222113 42.2403751,2.13672261 L42.2403751,0.230997039 C42.2403751,0.173247779 42.2403751,0.115498519 42.1826259,0.0577492597 C42.1248766,0 42.0671273,0 42.0093781,0 L35.0794669,0 L35.0794669,0 C34.9639684,0 34.8484699,0.115498519 34.8484699,0.230997039 L34.8484699,10.1638697 C34.8484699,10.2793682 34.9639684,10.3948667 35.0794669,10.3948667 L42.2403751,10.3948667 L42.2403751,10.3948667 C42.3558736,10.3948667 42.4713722,10.2793682 42.4713722,10.1638697 L42.4713722,8.25814413 C42.4713722,8.08489635 42.4136229,7.96939783 42.2981244,7.96939783 Z" id="Path"></path>
            <path d="M18.2166831,0 L15.9067127,0 C15.7912142,0 15.6757157,0.115498519 15.6757157,0.230997039 L15.6757157,5.42843041 L13.4234946,0.173247779 C13.4234946,0.0577492597 13.307996,0 13.2502468,0 L10.2472853,0 C10.1317868,0 10.0162882,0.115498519 10.0162882,0.230997039 L10.0162882,10.1638697 C10.0162882,10.2793682 10.1317868,10.3948667 10.2472853,10.3948667 L12.6150049,10.3948667 C12.7305034,10.3948667 12.846002,10.2793682 12.846002,10.1638697 L12.846002,4.27344521 L15.4447186,10.221619 C15.5024679,10.2793682 15.5602172,10.3371175 15.6179664,10.3371175 L18.2166831,10.3371175 L18.2166831,10.3371175 C18.3321816,10.3371175 18.4476801,10.221619 18.4476801,10.1061204 L18.4476801,0.230997039 C18.4476801,0.115498519 18.3321816,0 18.2166831,0 Z" id="Path"></path>
            <path d="M8.0528134,0 L5.39634748,0 C5.39634748,0 5.33859822,0 5.33859822,0 C5.33859822,0 5.28084896,0.0577492597 5.33859822,0.0577492597 L5.33859822,6.41016782 C5.33859822,7.10315894 4.76110563,7.68065153 4.01036525,7.62290227 C3.31737414,7.62290227 2.7976308,7.04540968 2.7976308,6.41016782 L2.7976308,1.21273445 L2.7976308,1.21273445 L2.7976308,0.0577492597 C2.7976308,0.0577492597 2.73988154,0 2.68213228,0 L0.083415597,0 C0.083415597,0 0.0256663376,0 0.0256663376,0 C0.0256663376,0 -0.032082922,0.0577492597 0.0256663376,0.0577492597 L0.0256663376,6.41016782 C0.083415597,8.66238895 1.9313919,10.452616 4.18361303,10.452616 C6.37808487,10.3948667 8.16831192,8.66238895 8.22606118,6.41016782 L8.22606118,0.866238895 L8.22606118,0.866238895 L8.22606118,0.115498519 C8.11056266,0.0577492597 8.11056266,0 8.0528134,0 C8.0528134,0 8.0528134,0 8.0528134,0 Z" id="Path"></path>
            <path d="M23.1253702,0.230997039 C23.1253702,0.115498519 23.0098717,0 22.8943731,0 L20.5266535,0 L20.5266535,0 C20.411155,0 20.2956565,0.115498519 20.2956565,0.230997039 L20.2956565,10.1061204 C20.2956565,10.221619 20.411155,10.3371175 20.5266535,10.3371175 L22.8943731,10.3371175 L22.8943731,10.3371175 C23.0098717,10.3371175 23.1253702,10.221619 23.1253702,10.1061204 L23.1253702,0.230997039 Z" id="Path"></path>
            <path d="M32.2497532,4.73543929 C33.3469891,3.69595262 33.4047384,1.96347483 32.3652517,0.866238895 C31.8455084,0.288746298 31.1525173,0 30.3440276,0 C30.3440276,0 30.2862784,0 30.2862784,0 L29.0157947,0 L29.0157947,0 L25.2620928,0 L25.2620928,0 C25.1465943,0 25.0310957,0.115498519 25.0310957,0.230997039 L25.0310957,10.1638697 C25.0310957,10.2793682 25.1465943,10.3948667 25.2620928,10.3948667 L30.3440276,10.3948667 C32.0765054,10.3948667 33.4624877,9.00888451 33.4624877,7.27640672 C33.4624877,6.23692004 33.0004936,5.31293189 32.2497532,4.73543929 L32.2497532,4.73543929 Z M27.7453109,2.07897335 L29.8242843,2.07897335 C30.2285291,2.07897335 30.5750247,2.42546891 30.5750247,2.82971372 C30.5750247,3.23395854 30.2285291,3.5804541 29.8242843,3.5804541 C29.8242843,3.5804541 29.8242843,3.5804541 29.8242843,3.5804541 L27.7453109,3.5804541 L27.7453109,2.07897335 Z M29.766535,7.85389931 L27.7453109,7.85389931 L27.7453109,5.71717671 L29.766535,5.71717671 C30.3440276,5.71717671 30.8060217,6.23692004 30.8060217,6.81441264 C30.8060217,7.39190524 30.3440276,7.85389931 29.766535,7.85389931 L29.766535,7.85389931 Z" id="Shape"></path>
            <path d="M51.8845015,0.0577492597 C51.8267522,0.0577492597 51.769003,0 51.7112537,0 L43.9728529,0 L43.9728529,0 C43.8573544,0 43.7418559,0.115498519 43.7418559,0.230997039 L43.7418559,2.13672261 C43.7418559,2.25222113 43.8573544,2.30997039 43.9728529,2.30997039 C43.9728529,2.30997039 43.9728529,2.30997039 43.9728529,2.30997039 L46.3983218,2.30997039 L46.3983218,10.1061204 C46.3983218,10.1638697 46.3983218,10.221619 46.4560711,10.2793682 C46.5138203,10.3371175 46.5715696,10.3371175 46.6293189,10.3371175 L49.0547878,10.3371175 L49.0547878,10.3371175 C49.1702863,10.3371175 49.2857848,10.221619 49.2857848,10.1061204 C49.2857848,10.1061204 49.2857848,10.1061204 49.2857848,10.1061204 L49.2857848,2.30997039 L51.769003,2.30997039 L51.769003,2.30997039 C51.8845015,2.30997039 52,2.19447187 52,2.07897335 C52,2.07897335 52,2.07897335 52,2.07897335 L52,0.230997039 C51.8845015,0.173247779 51.8845015,0.115498519 51.8845015,0.0577492597 Z" id="Path"></path>
        </g>
    </g>
</svg>