<?xml version="1.0" encoding="UTF-8"?>
<svg width="58px" height="24px" viewBox="0 0 58 24" version="1.1" xmlns="http://www.w3.org/2000/svg" xmlns:xlink="http://www.w3.org/1999/xlink">
    <title>Lavazza</title>
    <defs>
        <polygon id="path-1" points="-3.12232121e-15 1.56116061e-15 3.79852242 1.56116061e-15 3.79852242 3.0191975 -3.12232121e-15 3.0191975"></polygon>
        <polygon id="path-3" points="0 0 3.6948175 0 3.6948175 2.99876411 0 2.99876411"></polygon>
    </defs>
    <g id="Lavazza" stroke="none" stroke-width="1" fill="none" fill-rule="evenodd">
        <g id="logo_lavazza_italia_zwart" transform="translate(1.000000, 1.000000)">
            <polyline id="Fill-1" fill="#0B060B" points="6.96240147 19.7532614 6.96240147 21.7282689 6.38048941 21.7282689 6.38048941 19.7532614 5.62742029 19.7532614 5.62742029 19.2193568 7.71536074 19.2193568 7.71536074 19.7532614 6.96240147 19.7532614"></polyline>
            <path d="M9.63203428,19.6985526 C9.23479168,19.6985526 8.96794925,20.0236192 8.96794925,20.4754607 C8.96794925,20.9238966 9.23479168,21.2525885 9.63203428,21.2525885 C10.0289473,21.2525885 10.2961193,20.9238966 10.2961193,20.4754607 C10.2961193,20.0236192 10.0289473,19.6985526 9.63203428,19.6985526 M9.62170773,21.7695751 C8.84479965,21.7695751 8.34824641,21.2113922 8.34824641,20.4754607 C8.34824641,19.7362336 8.8686386,19.1781604 9.64576639,19.1781604 C10.4192689,19.1781604 10.919008,19.7362336 10.919008,20.4754607 C10.919008,21.2113922 10.3951004,21.7695751 9.62170773,21.7695751" id="Fill-2" fill="#0B060B"></path>
            <path d="M12.6189338,19.7222817 C12.5298399,19.7222817 12.4749114,19.7257971 12.3929582,19.7395293 L12.3929582,20.4310785 C12.46832,20.4378896 12.5095164,20.4410755 12.5779572,20.4410755 C12.8549065,20.4410755 13.0332043,20.3075994 13.0332043,20.054489 C13.0332043,19.845651 12.8686386,19.7222817 12.6189338,19.7222817 M13.1358106,21.7282689 L12.7080278,20.9102744 C12.6738623,20.9135701 12.6429925,20.9135701 12.6086073,20.9135701 C12.5232485,20.9135701 12.4749114,20.9102744 12.3929582,20.9067589 L12.3929582,21.7282689 L11.8110461,21.7282689 L11.8110461,19.2431957 C12.0232897,19.2191371 12.2558567,19.2022191 12.550493,19.2022191 C13.3308066,19.2022191 13.6389553,19.5751833 13.6389553,20.0338359 C13.6389553,20.331658 13.4780149,20.5989399 13.2074373,20.7595507 L13.7964901,21.7282689 L13.1358106,21.7282689" id="Fill-3" fill="#0B060B"></path>
            <polygon id="Fill-4" fill="#0B060B" points="14.5616435 21.7282689 15.1435555 21.7282689 15.1435555 19.2191371 14.5616435 19.2191371"></polygon>
            <polyline id="Fill-5" fill="#0B060B" points="18.2342699 21.7761665 16.7214303 20.4173464 16.7214303 21.7282689 16.1396281 21.7282689 16.1396281 19.1850814 16.2179561 19.1713493 17.7104721 20.5198429 17.7104721 19.2193568 18.2923842 19.2193568 18.2923842 21.76584 18.2342699 21.7761665"></polyline>
            <g id="Group-9" transform="translate(19.182884, 19.178160)">
                <mask id="mask-2" fill="white">
                    <use xlink:href="#path-1"></use>
                </mask>
                <g id="Clip-7"></g>
                <path d="M1.28378787,0.520392189 C0.886655132,0.520392189 0.619702837,0.84545879 0.619702837,1.29730027 C0.619702837,1.74573618 0.886655132,2.07442806 1.28378787,2.07442806 C1.68070089,2.07442806 1.9478729,1.74573618 1.9478729,1.29730027 C1.9478729,0.84545879 1.68070089,0.520392189 1.28378787,0.520392189 M1.27335146,2.59141468 C0.496553239,2.59141468 -3.12232121e-15,2.03323172 -3.12232121e-15,1.29730027 C-3.12232121e-15,0.55807311 0.520392189,1.56116061e-15 1.29751998,1.56116061e-15 C2.07102249,1.56116061e-15 2.57076158,0.55807311 2.57076158,1.29730027 C2.57076158,2.03323172 2.04696383,2.59141468 1.27335146,2.59141468" id="Fill-6" fill="#0B060B" mask="url(#mask-2)"></path>
                <path d="M3.32943341,3.02578891 L3.2815358,2.95053693 C3.42874406,2.82387191 3.49377935,2.72796682 3.53475598,2.577353 C3.36700448,2.56724616 3.26099256,2.45101755 3.26099256,2.30699514 C3.26099256,2.16692758 3.37381561,2.05036939 3.51443245,2.05036939 C3.69910192,2.05036939 3.79852242,2.19757766 3.79852242,2.37543599 C3.79852242,2.6219549 3.59287029,2.91637143 3.32943341,3.02578891" id="Fill-8" fill="#0B060B" mask="url(#mask-2)"></path>
            </g>
            <polygon id="Fill-10" fill="#0B060B" points="24.3985609 21.7282689 24.9804729 21.7282689 24.9804729 19.2191371 24.3985609 19.2191371"></polygon>
            <polyline id="Fill-11" fill="#0B060B" points="27.0822554 19.7532614 27.0822554 21.7282689 26.5004532 21.7282689 26.5004532 19.7532614 25.7476037 19.7532614 25.7476037 19.2193568 27.8353245 19.2193568 27.8353245 19.7532614 27.0822554 19.7532614"></polyline>
            <path d="M29.2753289,20.2254264 L29.0256241,20.8279915 L29.5218478,20.8279915 L29.2753289,20.2254264 Z M29.8950317,21.7282689 L29.7068468,21.2730219 L28.8406251,21.2730219 L28.6524402,21.7282689 L28.0603114,21.7282689 L29.2412732,19.1985938 L29.3200406,19.1985938 L30.5010024,21.7282689 L29.8950317,21.7282689 L29.8950317,21.7282689 Z" id="Fill-12" fill="#0B060B"></path>
            <polyline id="Fill-13" fill="#0B060B" points="31.2070528 21.7282689 31.2070528 19.2191371 31.7889649 19.2191371 31.7889649 21.19766 32.7952542 21.19766 32.7952542 21.7282689 31.2070528 21.7282689"></polyline>
            <polygon id="Fill-14" fill="#0B060B" points="33.5545852 21.7282689 34.1364972 21.7282689 34.1364972 19.2191371 33.5545852 19.2191371"></polygon>
            <g id="Group-18" transform="translate(34.847381, 19.198594)">
                <mask id="mask-4" fill="white">
                    <use xlink:href="#path-3"></use>
                </mask>
                <g id="Clip-16"></g>
                <path d="M1.2151273,1.02683255 L0.96531268,1.62939771 L1.46164621,1.62939771 L1.2151273,1.02683255 Z M1.83472028,2.5296751 L1.64631567,2.07442806 L0.780423498,2.07442806 L0.592238609,2.5296751 L0,2.5296751 L1.1809618,0 L1.2597292,0 L2.44047129,2.5296751 L1.83472028,2.5296751 L1.83472028,2.5296751 Z" id="Fill-15" fill="#0B060B" mask="url(#mask-4)"></path>
                <path d="M3.2259482,3.00535552 L3.17794073,2.93010354 C3.32514899,2.80343852 3.39007443,2.70753344 3.43127077,2.55691961 C3.26351927,2.54681278 3.15750735,2.43058416 3.15750735,2.28656175 C3.15750735,2.14649419 3.27044025,2.02993601 3.41072753,2.02993601 C3.59572657,2.02993601 3.6948175,2.17714427 3.6948175,2.35500261 C3.6948175,2.60152152 3.48949493,2.89593804 3.2259482,3.00535552" id="Fill-17" fill="#0B060B" mask="url(#mask-4)"></path>
            </g>
            <polyline id="Fill-19" fill="#0B060B" points="40.0827223 21.7282689 40.0827223 19.8147812 39.6548296 19.9791272 39.4870781 19.5340968 40.4455796 19.1781604 40.6646343 19.1781604 40.6646343 21.7282689 40.0827223 21.7282689"></polyline>
            <path d="M42.4569498,19.6848205 C42.2719508,19.6848205 42.1591277,19.8147812 42.1591277,19.9928593 C42.1591277,20.1676416 42.2856829,20.2666227 42.4569498,20.2666227 C42.621076,20.2666227 42.7478509,20.1676416 42.7478509,19.9928593 C42.7478509,19.8147812 42.6519458,19.6848205 42.4569498,19.6848205 M42.4569498,20.6706764 C42.2822773,20.6706764 42.1488012,20.7800939 42.1488012,20.9614677 C42.1488012,21.1292192 42.2753563,21.2592898 42.4569498,21.2592898 C42.6553514,21.2592898 42.778501,21.1292192 42.778501,20.9614677 C42.778501,20.7836093 42.6451347,20.6706764 42.4569498,20.6706764 M42.4569498,21.7695751 C41.8887699,21.7695751 41.5326138,21.4510999 41.5326138,21.0675895 C41.5326138,20.8142594 41.6524677,20.5644448 41.9434786,20.465244 C41.717503,20.3523111 41.6010546,20.136662 41.6010546,19.8834418 C41.6010546,19.4929005 41.9263409,19.1781604 42.4569498,19.1781604 C42.9840433,19.1781604 43.3126253,19.4929005 43.3126253,19.8834418 C43.3126253,20.136662 43.1722282,20.3658235 42.9669056,20.465244 C43.2716487,20.5748812 43.3844717,20.8142594 43.3844717,21.0675895 C43.3844717,21.4510999 43.0250199,21.7695751 42.4569498,21.7695751" id="Fill-20" fill="#0B060B"></path>
            <path d="M45.0516602,20.458323 C45.2535772,20.458323 45.404191,20.2803548 45.404191,20.0680014 C45.404191,19.8523523 45.2637939,19.674494 45.0582516,19.674494 C44.8357914,19.674494 44.6989097,19.8559776 44.6989097,20.0613002 C44.6989097,20.2838703 44.8391969,20.458323 45.0516602,20.458323 M45.0582516,19.1781604 C45.6335723,19.1781604 46.0030211,19.6163797 46.0030211,20.1401774 C46.0030211,21.0641839 45.3391557,21.4988877 44.5347834,21.8379061 L44.2745324,21.3858449 C44.6372799,21.2592898 45.0345225,21.0470462 45.2808217,20.7836093 C45.1714042,20.8417237 45.0447392,20.875999 44.8803933,20.875999 C44.4078987,20.875999 44.0965642,20.5301695 44.0965642,20.0648156 C44.0965642,19.6470297 44.4216308,19.1781604 45.0582516,19.1781604" id="Fill-21" fill="#0B060B"></path>
            <path d="M47.3837027,21.7692456 C47.1578369,21.7692456 46.9215347,21.7282689 46.709401,21.6564225 L46.8084919,21.1736014 C46.9728379,21.2386367 47.1543215,21.279833 47.3391008,21.279833 C47.6781192,21.279833 47.8697097,21.1532779 47.8697097,20.9545467 C47.8697097,20.7698772 47.7053638,20.5952047 47.3391008,20.5952047 C47.2193568,20.5952047 46.9831644,20.615748 46.8496883,20.6601302 L46.8118975,20.615748 L46.8118975,19.2191371 L48.3728544,19.2191371 L48.3728544,19.7395293 L47.3938096,19.7395293 L47.3938096,20.1263354 C47.4931202,20.1195243 47.5615611,20.1160089 47.6094587,20.1160089 C48.1981819,20.1160089 48.472165,20.458323 48.472165,20.8895114 C48.472165,21.3826591 48.0750323,21.7692456 47.3837027,21.7692456" id="Fill-22" fill="#0B060B"></path>
            <path d="M11.0629205,6.63392931 L11.0721485,10.2005438 L10.1345198,10.2005438 L11.0629205,6.63392931 Z M6.27513663,14.215704 L9.3176238,14.215704 L9.64510725,12.7688885 L11.0721485,12.7688885 L11.0721485,14.215704 L14.1274889,14.215704 L14.1274889,4.21641812 L8.49677295,4.21641812 L6.27513663,14.215704 L6.27513663,14.215704 Z" id="Fill-23" fill="#0B060B"></path>
            <polyline id="Fill-24" fill="#0B060B" points="5.68575431 4.21641812 2.24130071 4.21641812 0 14.2152646 5.55744143 14.2152646 6.2420697 11.130922 4.13874928 11.130922 5.68575431 4.21641812"></polyline>
            <polyline id="Fill-25" fill="#0B060B" points="19.9885749 4.21641812 18.4158633 11.3139436 18.4158633 4.21641812 15.2937299 4.21641812 15.2937299 14.2152646 20.9203812 14.2152646 23.1471808 4.21641812 19.9885749 4.21641812"></polyline>
            <path d="M51.2068331,10.1999945 L51.2151822,6.63348988 L52.1367719,10.1999945 L51.2068331,10.1999945 Z M53.7818791,4.21641812 L48.1537997,4.21641812 L48.1537997,14.215704 L51.2068331,14.215704 L51.2068331,12.7688885 L52.6365109,12.7688885 L52.9624564,14.215704 L56,14.215704 L53.7818791,4.21641812 L53.7818791,4.21641812 Z" id="Fill-26" fill="#0B060B"></path>
            <polyline id="Fill-27" fill="#0B060B" points="45.3457472 11.2495674 46.0834363 4.21652797 39.671418 4.21652797 40.2421246 7.41050781 42.3412705 7.41050781 41.7095933 14.2150449 47.8222515 14.2150449 47.2076021 11.2495674 45.3457472 11.2495674"></polyline>
            <polyline id="Fill-28" fill="#0B060B" points="38.4033397 11.2495674 39.1397105 4.21652797 32.7242866 4.21652797 33.2868639 7.41050781 35.4005108 7.41050781 34.7604845 14.2150449 40.8753399 14.2150449 40.2686001 11.2495674 38.4033397 11.2495674"></polyline>
            <path d="M26.968114,8.66199775 L27.9967043,3.21375409 L29.0591305,8.66199775 L26.968114,8.66199775 Z M25.2647826,0 L22.0512482,14.215704 L25.9915959,14.215704 L26.4512373,11.7931394 L29.5418418,11.7931394 L30.0156546,14.215704 L33.9438082,14.215704 L30.7558705,0 L25.2647826,0 L25.2647826,0 Z" id="Fill-29" fill="#0B060B"></path>
        </g>
    </g>
</svg>