<svg width="76" height="24" xmlns="http://www.w3.org/2000/svg" xmlns:xlink="http://www.w3.org/1999/xlink">
    <defs>
        <path id="a" d="M0 0h76v23.846H0z"/>
    </defs>
    <g fill="none" fill-rule="evenodd">
        <mask id="b" fill="#fff">
            <use xlink:href="#a"/>
        </mask>
        <path d="M69.23 22.316h.22a.09.09 0 0 0 .058-.023c.035-.035.035-.081 0-.116a.086.086 0 0 0-.058-.023h-.22v.162zm.464.058c-.023.046-.058.07-.105.093l.209.3h-.232l-.185-.277h-.151v.29h-.197v-.79h.452c.07 0 .139.025.186.07a.256.256 0 0 1 .069.175.227.227 0 0 1-.046.139zm.034.614a.613.613 0 0 0 .244-.243.786.786 0 0 0 0-.72.575.575 0 0 0-.255-.242.81.81 0 0 0-.73 0 .635.635 0 0 0-.255.243.786.786 0 0 0 0 .719.611.611 0 0 0 .243.243.786.786 0 0 0 .753 0zm.093-1.356a.85.85 0 0 1 .325.313c.15.267.15.603 0 .869a.836.836 0 0 1-.325.313.983.983 0 0 1-.916 0 .923.923 0 0 1-.324-.313.807.807 0 0 1-.116-.44.85.85 0 0 1 .44-.754c.29-.14.626-.14.916.012zM53.244 1.809s-1.425.569-3.083 2.388c-1.658 1.82-2.62 3.884-1.901 4.429.278.208.904.243 2.052-.79a9 9 0 0 0 2.422-3.372c.742-1.797.499-2.631.51-2.655zm9.065 3.293c-1.843-.94-3.187-2.098-4.59-2.817-1.333-.684-2.203-.974-3.281-.823-.15.023-.301.069-.44.116 0 0 .556 1.9-1.658 5.089-2.237 3.234-4.277 3.222-4.857 2.318-.603-.94.174-2.852 1.484-4.556 1.368-1.773 3.767-3.257 3.767-3.257s-.765-.464-2.643.603c-1.831 1.043-4.996 3.512-7.917 7.685-2.921 4.173-3.512 6.457-3.93 8.266-.417 1.808-.035 3.732 1.97 3.732 2.006 0 4.336-3.06 4.985-4.115 1.218-1.982 2.018-5.008.36-4.591-.823.209-1.484 1.113-1.901 1.983a8.403 8.403 0 0 0-.603 1.75s-.696.244-1.623.939c-.545.406-1.066.87-1.542 1.356 0 0 0-1.437 1.16-3.78 1.159-2.34 3.257-3.407 4.45-3.5 1.079-.092 2.482.824 1.299 4.208-1.182 3.374-4.695 7.477-8.381 7.535-3.396.047-5.622-4.29-.892-11.858C42.754 3.015 48.896.442 50.89.152c1.994-.29 2.643.59 2.643.59a8.504 8.504 0 0 1 3.79-.625c2.435.162 4.325 1.89 6.805 3.095a39.13 39.13 0 0 0-1.82 1.89zm10.943-2.83c-1.68 1.09-4.022 2.065-6.26 1.856a36.322 36.322 0 0 0-1.784 2.005c3.894.765 7.303-1.646 9.11-3.698A11.887 11.887 0 0 0 76 .013a15.058 15.058 0 0 1-2.748 2.26zM68.07 13.24a.39.39 0 0 0 .069-.162s-.046-.325-.36-.348c-.37-.011-.88.058-2.202 1.519a20.395 20.395 0 0 0-2.816 3.999c-.754 1.39-1.067 2.423-.626 2.69a.617.617 0 0 0 .452.046c.3-.07.626-.348 1.136-.94.243-.277.498-.671.823-1.1.892-1.194 3.095-4.95 3.524-5.704zm-13.772 1.6c.22-.58.499-1.716-.081-2.156-.626-.475-2.237.638-2.237 1.774-.012 1.17 1.124 1.692 1.403 1.773.15.046.208.035.289-.093.232-.417.452-.846.626-1.298zm-1.205 2.133a4.818 4.818 0 0 1-1.102-.707 3.684 3.684 0 0 1-.834-1.01c-.023-.033-.047-.01-.07.025-.023.034-.116.115-.973 1.379-.858 1.264-2.168 3.849-.974 4.289.765.278 2.028-1.055 2.724-1.936.475-.614.893-1.263 1.275-1.936.023-.081-.011-.092-.046-.104zm13.48 2.99c-.323.522-.683 1.508.384.893 1.298-.753 3.153-3.558 3.153-3.558h.835a28.524 28.524 0 0 1-2.54 3.338c-1.321 1.46-2.92 2.782-4.056 2.655-1.322-.151-.904-1.89-.904-1.89s-1.902 2.017-3.2 1.867c-1.762-.198-1.23-2.377-1.23-2.377s-1.993 2.458-3.35 2.377c-2.132-.128-1.6-2.725-1.007-4.545.313-.973.614-1.75.614-1.75s-.21.058-.661.128c-.232.034-.672.058-.672.058s-.881 1.564-1.6 2.515c-.707.939-3.732 4.185-5.506 3.536-1.646-.603-1.101-3.12-.14-5.113 1.392-2.91 5.322-7.106 7.582-6.561 2.342.568.058 4.857.058 4.857s0 .012.023.024c.047.023.163.034.452-.024.29-.058.58-.15.858-.255 0 0 2.353-4.938 4.962-8.184 2.608-3.234 7.8-8.81 9.853-7.453.498.324.267 1.472-.394 2.85a12.26 12.26 0 0 1-.928.245c.453-.812.742-1.507.835-1.983.3-1.67-3.593 1.855-6.376 5.646a51.947 51.947 0 0 0-4.451 7.222c.498-.302.985-.65 1.437-1.02a41.35 41.35 0 0 0 3.536-3.304 39.038 39.038 0 0 0 3.014-3.478c.3-.011.59-.046.88-.093a38.408 38.408 0 0 1-3.326 3.93c-1.113 1.125-2.318 2.33-3.362 3.223-.927.8-1.912 1.53-2.944 2.19 0 0-2.446 4.916-1.113 5.229.777.185 2.319-2.191 2.319-2.191s2.005-3.072 3.222-4.44c1.646-1.878 3.072-2.968 4.486-2.991.823-.011 1.322.87 1.322.87l.394-.603h2.4c-.012-.012-4.498 7.593-4.858 8.16zm6.678-17.69c-1.68 1.09-4.022 2.065-6.26 1.856a36.322 36.322 0 0 0-1.784 2.005c3.894.765 7.303-1.646 9.11-3.698A11.887 11.887 0 0 0 76 .013a15.058 15.058 0 0 1-2.748 2.26zM28.797 13.24c.973-1.333 3.64-5.993 3.64-5.993s-.047-.324-.36-.336c-.371-.012-.985.104-2.214 1.646-1.23 1.53-2.168 2.759-2.863 4.023-.754 1.39-1.09 2.364-.661 2.63.139.07.3.094.452.047.29-.07.66-.36 1.17-.95.244-.267.523-.638.836-1.067zM16.555 6.945c-.626-.475-2.237.637-2.237 1.773-.012 1.17 1.449 1.496 1.635 1.507a.201.201 0 0 0 .23-.092c.175-.337.326-.684.465-1.032.209-.58.499-1.716-.093-2.156zm-.962 4.01a5.395 5.395 0 0 1-1.23-.567 2.646 2.646 0 0 1-.88-.974c-.023-.035-.046-.012-.07.023-.022.035-.15.197-1.008 1.449-.857 1.252-2.133 3.837-.94 4.278.766.278 2.042-1.055 2.737-1.936.522-.696.997-1.414 1.438-2.156.034-.082 0-.093-.047-.116zm18.64.766h.835s-4.185 6.05-6.55 5.784c-1.321-.15-.927-1.785-.927-1.785s-1.855 2.168-3.56 1.739c-1.541-.394-.544-2.968-.544-2.968-.173.07-3.512 3.837-5.865 2.933-2.458-.95-1.183-4.103-.72-5.054.395-.8.836-1.577.836-1.577s-.383.105-.615.163c-.232.058-.591.127-.591.127s-1.16 1.89-1.866 2.829c-.707.939-3.733 4.184-5.518 3.547-1.785-.65-1.345-3.13-.348-5.112 1.623-3.211 5.472-7.153 7.778-6.561 2.342.59.406 4.393.406 4.393s.464.058 1.577-.695c1.61-1.102 3.72-4.046 6.016-3.698 1.078.162 2.087 1.263.707 3.373-.44.672-1.182 1.275-1.74.684-.346-.371-.045-1.043.326-1.507.29-.383.753-.591 1.24-.568 0 0 .383-.87-.58-.858-.776.012-2.758 1.832-3.871 3.675-1.02 1.692-2.574 4.567-1.02 5.193 1.426.58 4.138-2.655 5.402-4.335 1.252-1.693 4.115-5.518 6.526-5.681.823-.058 1.322.696 1.322.696l.278-.441h2.41s-4.52 7.559-4.88 8.138c-.277.452-.648 1.46.383.893 1.02-.568 3.153-3.304 3.153-3.304v-.023zm-1.31 12.125a9.944 9.944 0 0 0-6.04-1.762 3.703 3.703 0 0 0-2.943 1.6c-.916-1.6-2.736-2.585-5.542-2.562-4.532.058-9.018 2.145-12.577 2.145-3.42 0-5.9-2.145-5.82-5.96.14-6.676 5.785-12.692 10.005-15.405C12.429.337 14.456-.115 15.79.024c.974.105 2.133 1.229 1.403 2.875-1.078 2.423-2.574 2.214-2.516 1.055.035-.753.534-1.217.905-1.484.243-.162.66-.208.88-.22.209-.185.372-1.507-1.356-1.066-1.727.44-3.837 2.156-5.842 4.358-2.006 2.203-5.101 6.376-5.866 10.746-.36 2.029-.116 5.727 4.683 5.68 4.069-.035 10.086-2.724 15.615-2.666 2.145.023 4.01.59 5.46 1.495 1.449.88 3.165 2.168 3.767 3.049zm6.666-17.83h-2.284l-1.286 2.088h2.272l1.298-2.087z" fill="#181314" mask="url(#b)"/>
    </g>
</svg>
