<svg width="76" height="24" xmlns="http://www.w3.org/2000/svg" xmlns:xlink="http://www.w3.org/1999/xlink">
    <defs>
        <path id="a" d="M0 0h76v19.649H0z"/>
    </defs>
    <g transform="translate(0 2)" fill="none" fill-rule="evenodd">
        <mask id="b" fill="#fff">
            <use xlink:href="#a"/>
        </mask>
        <path d="M70.908 14.571V5.155L66.2 9.853l-4.708-4.698v9.416L66.2 9.868l4.708 4.703zM44.145 6.535a4.707 4.707 0 0 1 6.658 0 4.707 4.707 0 1 1-6.658 6.658 4.709 4.709 0 0 1 0-6.658zm13.072 12.249h17.919V.865h-17.92v17.919zm-18.784 0h17.919V.865h-17.92v17.919zm-18.784 0h17.919V.865h-17.92v17.919zm-18.784 0h17.919V.865H.864v17.919zM38.433 0H0v19.649h76V0H38.433zM14.605 7.591c.028-1.326-1.072-2.402-2.398-2.402H5.189v9.416h7.018c1.326 0 2.422-1.076 2.398-2.402a2.351 2.351 0 0 0-2.354-2.306 2.352 2.352 0 0 0 2.354-2.306zm9.319 6.966h9.416l-9.416-9.416v9.416z" fill="#181314" mask="url(#b)"/>
    </g>
</svg>
